PathFileType	4	(X/Y/Z)	D:\TRACE\v60_Jaco2_6-2-23\ArmBody_Mo2_DMP_1-platform.trc
DataRate	CameraRate	NumFrames	NumMarkers	Units	OrigDataRate	OrigDataStartFrame	OrigNumFrames
100.00	100.00	      43	5	mm	100.00	2457	      6551
Frame#	Time	Left_Front			Right_Front			Left_Aft			Right_Aft			Post			
		X1	Y1	Z1	X2	Y2	Z2	X3	Y3	Z3	X4	Y4	Z4	X5	Y5	Z5	

2457	24.560				775.53394	40.08284	-624.57794	-724.00708	-14.40427	487.56317	693.26715	-16.36457	590.16217	-2.31229	1351.41284	-895.73456	
2458	24.570				774.40503	38.75740	-624.96960	-725.47906	-13.27793	487.44125	692.19519	-15.47138	589.84003	-3.18147	1349.42102	-898.69147	
2459	24.580				773.14014	37.60441	-625.39417	-726.33167	-12.67579	487.30237	690.84119	-14.58758	589.62323	-4.09394	1347.63684	-901.95734	
2460	24.590				772.00946	35.96953	-625.73914	-727.74579	-11.43396	486.85385	689.87335	-13.26251	589.26294	-5.44664	1345.85803	-905.45337	
2461	24.600				771.11670	35.24722	-626.08282	-728.77582	-10.68847	486.65012	688.85248	-12.15462	588.96002	-6.82746	1344.20300	-909.16614	
2462	24.610				769.56110	33.97979	-626.74750	-729.84161	-9.75335	486.40628	687.86859	-11.10727	588.65173	-8.05733	1342.62366	-912.62451	
2463	24.620				768.48071	32.65504	-626.88477	-731.08807	-8.74661	486.00571	686.60938	-9.99542	588.21063	-9.09639	1340.86194	-916.17767	
2464	24.630				767.82892	31.38250	-627.47577	-732.10370	-8.21041	485.83585	685.61279	-8.86723	588.23730	-9.92113	1338.88684	-919.28967	
2465	24.640				766.54547	29.76820	-627.62408	-733.36224	-7.09203	485.46671	684.33759	-7.84664	587.94312	-11.19213	1336.88867	-922.40033	
2466	24.650				765.23444	28.70868	-627.84863	-734.35645	-6.22817	485.16595	683.39575	-6.73662	587.66193	-12.12248	1335.12036	-925.22229	
2467	24.660				764.11237	27.63862	-628.42493	-735.60699	-5.06919	484.86307	682.38477	-5.55822	587.20966	-13.40631	1333.33386	-927.97742	
2468	24.670				763.05676	25.79293	-628.70844	-736.65466	-4.19619	484.46255	681.19629	-4.33923	586.91632	-14.41959	1331.16235	-930.44196	
2469	24.680				761.99951	24.19591	-629.06494	-737.67053	-3.22870	484.32468	679.97656	-3.14345	586.57941	-15.53641	1329.06812	-932.85809	
2470	24.690				760.88257	22.98974	-629.56006	-738.75940	-2.20495	483.87711	678.72064	-2.02866	586.30444	-16.25801	1326.86841	-935.46198	
2471	24.700				759.70068	21.63231	-629.78442	-740.07001	-1.09935	483.47668	677.96869	-0.64480	585.96753	-16.96965	1324.85645	-938.62012	
2472	24.710				758.51935	19.98699	-630.34985	-740.91473	-0.16894	483.31851	676.59857	0.38396	585.53943	-18.62211	1322.94324	-941.36261	
2473	24.720				757.83270	18.90955	-630.72290	-742.19989	0.96250	482.80438	675.71741	1.52268	585.29340	-19.96813	1320.92578	-944.78961	
2474	24.730				756.44830	17.34937	-630.99036	-743.01257	1.80115	482.63229	674.10168	2.55873	584.95398	-20.74690	1318.75720	-948.19659	
2475	24.740				755.43256	15.80899	-631.42273	-744.18750	2.74601	482.16684	673.52808	3.87309	584.67487	-21.65476	1316.73816	-951.65881	
2476	24.750				754.40308	14.56761	-631.85004	-745.41577	3.54481	481.99960	673.03156	5.14317	583.99683	-22.61301	1314.85059	-955.36438	
2477	24.760				753.30408	13.20440	-632.00189	-746.23352	4.65647	481.45139	671.38300	5.94309	583.83917	-23.53077	1312.76953	-959.02576	
2478	24.770				752.35950	11.92259	-632.55786	-747.42194	5.56006	481.29697	670.12958	6.94930	583.54077	-24.72603	1310.91382	-962.59729	
2479	24.780				751.46014	10.52270	-632.85291	-748.32129	6.83915	480.78262	668.90942	7.98195	583.06519	-25.69273	1308.70862	-965.95270	
2480	24.790				750.38751	9.02996	-633.03711	-749.40735	7.33407	480.48221	667.95764	9.11766	582.70978	-26.74901	1306.54614	-969.05835	
2481	24.800				749.30499	7.55875	-633.43188	-750.61829	8.64557	480.09067	666.63702	9.93068	582.08063	-27.72300	1304.34851	-971.94513	
2482	24.810				748.47552	6.14855	-633.75208	-750.98224	9.36494	479.96729	665.64606	10.91531	581.37195	-28.47032	1302.20398	-974.73114	
2483	24.820				747.47681	4.59293	-634.11871	-752.40625	10.73753	479.24649	665.31860	12.92645	581.81299	-29.52649	1300.04529	-977.52252	
2484	24.830				746.56873	3.21564	-634.64178	-753.04358	11.46262	479.19458	664.26129	14.14954	581.55182	-30.21926	1297.91504	-980.33655	
2485	24.840				745.86481	1.93340	-634.93311	-754.21600	12.55899	478.62646	663.57635	15.29851	581.19232	-31.11121	1295.93982	-983.14246	
2486	24.850				744.63293	0.35992	-634.99762	-755.09619	13.17147	478.49356	662.49335	16.35131	580.84381	-32.13632	1293.76416	-985.87646	
2487	24.860				743.57257	-1.05685	-635.54370	-756.08453	14.55588	477.90976	661.51410	17.61310	580.34015	-32.89692	1291.57092	-988.82910	
2488	24.870				743.11981	-2.18565	-635.77991	-756.93036	15.10836	477.69928	660.85785	18.86541	579.97681	-33.76947	1289.53699	-991.98163	
2489	24.880				741.80798	-3.78928	-636.15289	-757.81366	16.36609	477.38928	659.90143	19.70971	579.69971	-34.81550	1287.71021	-995.17554	
2490	24.890				741.15723	-4.92011	-636.44147	-758.34918	16.86688	477.05325	659.08954	20.71330	579.37451	-35.66706	1285.57446	-998.28967	
2491	24.900				740.46033	-6.21496	-636.72156	-759.61157	18.04226	476.54404	658.35309	21.98328	579.04773	-36.90479	1283.46436	-1001.24164	
2492	24.910				739.22290	-7.44596	-637.21356	-760.20685	18.93045	476.41876	657.34229	23.09221	578.57886	-37.02564	1281.07507	-1004.48138	
2493	24.920				738.49249	-9.44445	-637.38794	-761.11755	19.91637	475.99182	656.42719	24.14041	578.06738	-37.94062	1279.25342	-1007.46454	
2494	24.930				737.90552	-10.77646	-637.59320	-761.85840	20.77309	475.56470	655.91266	25.33806	577.65454	-38.47237	1276.87939	-1010.50580	
2495	24.940				737.07819	-11.98092	-638.22980	-762.48657	21.73042	475.14017	655.14728	26.45594	577.42902	-39.15433	1274.83569	-1013.43298	
2496	24.950				736.56030	-13.50426	-638.18927	-763.30872	22.67139	474.65155	654.41425	27.35281	577.13824	-39.59622	1272.53589	-1016.62225	
2497	24.960				735.83807	-14.67803	-638.50781	-764.01868	23.43238	474.47122	653.77374	28.42908	576.76715	-40.63435	1270.75403	-1019.56165	
2498	24.970				734.95715	-16.04101	-638.84259	-764.66772	24.51230	474.16864	652.96857	29.53651	576.36798	-41.29663	1268.82776	-1022.29370	
2499	24.980				734.70190	-16.88203	-638.86127	-764.76538	24.76745	474.12955	652.58539	30.66952	575.94928	-41.84713	1266.76160	-1025.20105	
